<mxfile host="app.diagrams.net" modified="2023-05-15T12:41:39.028Z" agent="Mozilla/5.0 (Windows NT 10.0; Win64; x64) AppleWebKit/537.36 (KHTML, like Gecko) Chrome/113.0.0.0 Safari/537.36" etag="t15atBQ_YJdtNtW5Gd7c" version="21.3.0" type="device">
  <diagram id="C5RBs43oDa-KdzZeNtuy" name="Page-1">
    <mxGraphModel dx="1195" dy="637" grid="1" gridSize="10" guides="1" tooltips="1" connect="1" arrows="1" fold="1" page="1" pageScale="1" pageWidth="827" pageHeight="1169" math="0" shadow="0">
      <root>
        <mxCell id="WIyWlLk6GJQsqaUBKTNV-0" />
        <mxCell id="WIyWlLk6GJQsqaUBKTNV-1" parent="WIyWlLk6GJQsqaUBKTNV-0" />
        <mxCell id="HIRBguY5vaYNJ9pD-gR6-0" value="player" style="swimlane;fontStyle=1;align=center;verticalAlign=top;childLayout=stackLayout;horizontal=1;startSize=26;horizontalStack=0;resizeParent=1;resizeParentMax=0;resizeLast=0;collapsible=1;marginBottom=0;whiteSpace=wrap;html=1;" vertex="1" parent="WIyWlLk6GJQsqaUBKTNV-1">
          <mxGeometry x="160" y="379" width="210" height="206" as="geometry" />
        </mxCell>
        <mxCell id="HIRBguY5vaYNJ9pD-gR6-1" value="+ Name: String&lt;br&gt;+ Color : String&lt;br&gt;+ Position: position" style="text;strokeColor=none;fillColor=none;align=left;verticalAlign=top;spacingLeft=4;spacingRight=4;overflow=hidden;rotatable=0;points=[[0,0.5],[1,0.5]];portConstraint=eastwest;whiteSpace=wrap;html=1;" vertex="1" parent="HIRBguY5vaYNJ9pD-gR6-0">
          <mxGeometry y="26" width="210" height="64" as="geometry" />
        </mxCell>
        <mxCell id="HIRBguY5vaYNJ9pD-gR6-2" value="" style="line;strokeWidth=1;fillColor=none;align=left;verticalAlign=middle;spacingTop=-1;spacingLeft=3;spacingRight=3;rotatable=0;labelPosition=right;points=[];portConstraint=eastwest;strokeColor=inherit;" vertex="1" parent="HIRBguY5vaYNJ9pD-gR6-0">
          <mxGeometry y="90" width="210" height="8" as="geometry" />
        </mxCell>
        <mxCell id="HIRBguY5vaYNJ9pD-gR6-3" value="+ getName(): String&lt;br&gt;+ getColor(): String&lt;br&gt;+ getPosition(): void&lt;br&gt;+ setName(Name: String): void&lt;br&gt;+ setColor(Color: String): void&lt;br&gt;+ setPosition(Position: position): void" style="text;strokeColor=none;fillColor=none;align=left;verticalAlign=top;spacingLeft=4;spacingRight=4;overflow=hidden;rotatable=0;points=[[0,0.5],[1,0.5]];portConstraint=eastwest;whiteSpace=wrap;html=1;" vertex="1" parent="HIRBguY5vaYNJ9pD-gR6-0">
          <mxGeometry y="98" width="210" height="108" as="geometry" />
        </mxCell>
        <mxCell id="HIRBguY5vaYNJ9pD-gR6-4" value="game" style="swimlane;fontStyle=1;align=center;verticalAlign=top;childLayout=stackLayout;horizontal=1;startSize=26;horizontalStack=0;resizeParent=1;resizeParentMax=0;resizeLast=0;collapsible=1;marginBottom=0;whiteSpace=wrap;html=1;" vertex="1" parent="WIyWlLk6GJQsqaUBKTNV-1">
          <mxGeometry x="175" y="100" width="180" height="158" as="geometry" />
        </mxCell>
        <mxCell id="HIRBguY5vaYNJ9pD-gR6-5" value="+ player : player&lt;br&gt;+ build ：position&lt;br&gt;+ move : position" style="text;strokeColor=none;fillColor=none;align=left;verticalAlign=top;spacingLeft=4;spacingRight=4;overflow=hidden;rotatable=0;points=[[0,0.5],[1,0.5]];portConstraint=eastwest;whiteSpace=wrap;html=1;" vertex="1" parent="HIRBguY5vaYNJ9pD-gR6-4">
          <mxGeometry y="26" width="180" height="64" as="geometry" />
        </mxCell>
        <mxCell id="HIRBguY5vaYNJ9pD-gR6-6" value="" style="line;strokeWidth=1;fillColor=none;align=left;verticalAlign=middle;spacingTop=-1;spacingLeft=3;spacingRight=3;rotatable=0;labelPosition=right;points=[];portConstraint=eastwest;strokeColor=inherit;" vertex="1" parent="HIRBguY5vaYNJ9pD-gR6-4">
          <mxGeometry y="90" width="180" height="8" as="geometry" />
        </mxCell>
        <mxCell id="HIRBguY5vaYNJ9pD-gR6-7" value="+ move(move:position): void&lt;br&gt;+ build(cuild : position)：void" style="text;strokeColor=none;fillColor=none;align=left;verticalAlign=top;spacingLeft=4;spacingRight=4;overflow=hidden;rotatable=0;points=[[0,0.5],[1,0.5]];portConstraint=eastwest;whiteSpace=wrap;html=1;" vertex="1" parent="HIRBguY5vaYNJ9pD-gR6-4">
          <mxGeometry y="98" width="180" height="60" as="geometry" />
        </mxCell>
        <mxCell id="HIRBguY5vaYNJ9pD-gR6-8" value="position" style="swimlane;fontStyle=1;align=center;verticalAlign=top;childLayout=stackLayout;horizontal=1;startSize=26;horizontalStack=0;resizeParent=1;resizeParentMax=0;resizeLast=0;collapsible=1;marginBottom=0;whiteSpace=wrap;html=1;" vertex="1" parent="WIyWlLk6GJQsqaUBKTNV-1">
          <mxGeometry x="510" y="280" width="160" height="120" as="geometry" />
        </mxCell>
        <mxCell id="HIRBguY5vaYNJ9pD-gR6-9" value="- x: int&lt;br&gt;- y: int" style="text;strokeColor=none;fillColor=none;align=left;verticalAlign=top;spacingLeft=4;spacingRight=4;overflow=hidden;rotatable=0;points=[[0,0.5],[1,0.5]];portConstraint=eastwest;whiteSpace=wrap;html=1;" vertex="1" parent="HIRBguY5vaYNJ9pD-gR6-8">
          <mxGeometry y="26" width="160" height="44" as="geometry" />
        </mxCell>
        <mxCell id="HIRBguY5vaYNJ9pD-gR6-10" value="" style="line;strokeWidth=1;fillColor=none;align=left;verticalAlign=middle;spacingTop=-1;spacingLeft=3;spacingRight=3;rotatable=0;labelPosition=right;points=[];portConstraint=eastwest;strokeColor=inherit;" vertex="1" parent="HIRBguY5vaYNJ9pD-gR6-8">
          <mxGeometry y="70" width="160" height="8" as="geometry" />
        </mxCell>
        <mxCell id="HIRBguY5vaYNJ9pD-gR6-11" value="+ getX(): int&lt;br&gt;+ getY(): int" style="text;strokeColor=none;fillColor=none;align=left;verticalAlign=top;spacingLeft=4;spacingRight=4;overflow=hidden;rotatable=0;points=[[0,0.5],[1,0.5]];portConstraint=eastwest;whiteSpace=wrap;html=1;" vertex="1" parent="HIRBguY5vaYNJ9pD-gR6-8">
          <mxGeometry y="78" width="160" height="42" as="geometry" />
        </mxCell>
        <mxCell id="HIRBguY5vaYNJ9pD-gR6-12" value="Use" style="endArrow=open;endSize=12;dashed=1;html=1;rounded=0;entryX=0;entryY=0.5;entryDx=0;entryDy=0;" edge="1" parent="WIyWlLk6GJQsqaUBKTNV-1" target="HIRBguY5vaYNJ9pD-gR6-11">
          <mxGeometry width="160" relative="1" as="geometry">
            <mxPoint x="355" y="178.57999999999998" as="sourcePoint" />
            <mxPoint x="515" y="178.57999999999998" as="targetPoint" />
            <Array as="points">
              <mxPoint x="420" y="180" />
              <mxPoint x="420" y="379" />
            </Array>
          </mxGeometry>
        </mxCell>
        <mxCell id="HIRBguY5vaYNJ9pD-gR6-13" value="Use" style="endArrow=open;endSize=12;dashed=1;html=1;rounded=0;exitX=1;exitY=0.5;exitDx=0;exitDy=0;entryX=0;entryY=0.853;entryDx=0;entryDy=0;entryPerimeter=0;" edge="1" parent="WIyWlLk6GJQsqaUBKTNV-1" source="HIRBguY5vaYNJ9pD-gR6-3" target="HIRBguY5vaYNJ9pD-gR6-11">
          <mxGeometry width="160" relative="1" as="geometry">
            <mxPoint x="310" y="310" as="sourcePoint" />
            <mxPoint x="470" y="310" as="targetPoint" />
            <Array as="points">
              <mxPoint x="420" y="531" />
              <mxPoint x="420" y="396" />
            </Array>
          </mxGeometry>
        </mxCell>
      </root>
    </mxGraphModel>
  </diagram>
</mxfile>
